<svg width="250" height="180" fill="none" xmlns="http://www.w3.org/2000/svg"><path d="M0 0h250v200H0z"/><path fill-rule="evenodd" clip-rule="evenodd" d="M63 134h91c.515 0 1.017-.056 1.5-.161.483.105.985.161 1.5.161h52a7 7 0 1 0 0-14h-6a7 7 0 1 1 0-14h19a7 7 0 1 0 0-14h-22a7 7 0 1 0 0-14h-64a7 7 0 1 0 0-14H79a7 7 0 1 0 0 14H39a7 7 0 1 0 0 14h25a7 7 0 1 1 0 14H24a7 7 0 1 0 0 14h39a7 7 0 1 0 0 14Zm163 0a7 7 0 1 0 0-14 7 7 0 0 0 0 14Z" fill="#F3F7FF"/><path fill-rule="evenodd" clip-rule="evenodd" d="M92 140c-12.15 0-22-9.626-22-21.5S79.85 97 92 97c.517 0 1.03.017 1.537.052A34.205 34.205 0 0 1 93 91c0-18.778 15.222-34 34-34 14.991 0 27.716 9.702 32.239 23.17A31.347 31.347 0 0 1 162.5 80c16.845 0 30.5 13.431 30.5 30 0 15.741-12.325 28.727-28 29.978V140H92Zm11.996 0h-6.965 6.965Z" fill="#fff"/><path d="M103.996 140h-6.965M92 140c-12.15 0-22-9.626-22-21.5S79.85 97 92 97c.517 0 1.03.017 1.537.052A34.205 34.205 0 0 1 93 91c0-18.778 15.222-34 34-34 14.991 0 27.716 9.702 32.239 23.17A31.347 31.347 0 0 1 162.5 80c16.845 0 30.5 13.431 30.5 30 0 15.741-12.325 28.727-28 29.978V140H92Z" stroke="#1F64E7" stroke-width="2.5" stroke-linecap="round"/><path fill-rule="evenodd" clip-rule="evenodd" d="M116.612 64.343c0 32.223 29.021 58.775 66.388 62.36-4.683 5.758-11.914 9.665-20.153 10.278V137H95.743C87.601 137 74 133.57 74 118.548c0-15.021 10.574-18.451 21.743-18.451.475 0 .946.015 1.413.044-.324-1.685-.381-3.423-.494-5.194-.758-11.963 4.461-27.04 19.968-31.947-.012.447-.018.894-.018 1.343Zm10.504 50.415c-3.038 0-5.502 2.434-5.502 5.437s2.464 5.437 5.502 5.437c3.039 0 5.502-2.434 5.502-5.437s-2.463-5.437-5.502-5.437Z" fill="#E8F0FE"/><path d="M127.5 126a5.5 5.5 0 1 0 0-11 5.5 5.5 0 1 0 0 11Z" stroke="#1F64E7" stroke-width="2.5"/><path d="m112 109 7-5.493-7-5.23M143 109l-7-5.493 7-5.23" stroke="#1F64E7" stroke-width="2.5" stroke-linecap="round" stroke-linejoin="round"/><path d="M137 67a19.035 19.035 0 0 1 13.44 13.293" stroke="#75A4FE" stroke-width="2.5" stroke-linecap="round"/><path d="M158 50a3 3 0 1 0 0-6 3 3 0 0 0 0 6Z" stroke="#75A4FE" stroke-width="2"/><path d="M189 66a3 3 0 1 0 0-6 3 3 0 0 0 0 6Z" fill="#75A4FE"/><path d="m165.757 57.757 8.359 8.359m.127-8.359-8.359 8.359 8.359-8.359ZM71.404 75.596l6 6m0-6-6 6 6-6Z" stroke="#75A4FE" stroke-width="2.5" stroke-linecap="round" stroke-linejoin="round"/><path d="M85 69a3 3 0 1 0 0-6 3 3 0 0 0 0 6Z" fill="#75A4FE"/></svg>